<svg xmlns="http://www.w3.org/2000/svg" viewBox="0 0 800 450" width="800" height="450">
  <defs>
    <linearGradient id="bg2" x1="0%" y1="0%" x2="100%" y2="100%">
      <stop offset="0%" style="stop-color:#050d1a"/>
      <stop offset="100%" style="stop-color:#0a1628"/>
    </linearGradient>
  </defs>
  <rect width="800" height="450" fill="url(#bg2)"/>
  <!-- Sidebar -->
  <rect x="0" y="0" width="180" height="450" fill="#0d1b2e"/>
  <text x="90" y="35" font-family="monospace" font-size="13" fill="#7c3aed" text-anchor="middle" font-weight="bold">StockWise AI</text>
  <rect x="20" y="55" width="140" height="32" rx="6" fill="#7c3aed30"/>
  <text x="90" y="76" font-family="monospace" font-size="11" fill="#a855f7" text-anchor="middle">Dashboard</text>
  <rect x="20" y="97" width="140" height="32" rx="6" fill="transparent"/>
  <text x="90" y="118" font-family="monospace" font-size="11" fill="#ffffff50" text-anchor="middle">Products</text>
  <rect x="20" y="139" width="140" height="32" rx="6" fill="transparent"/>
  <text x="90" y="160" font-family="monospace" font-size="11" fill="#ffffff50" text-anchor="middle">Analytics</text>
  <!-- Inventory bars -->
  <rect x="210" y="50" width="180" height="80" rx="10" fill="#0d1b2e"/>
  <text x="300" y="75" font-family="monospace" font-size="10" fill="#ffffff60" text-anchor="middle">TOTAL ITEMS</text>
  <text x="300" y="110" font-family="monospace" font-size="26" fill="#a855f7" text-anchor="middle" font-weight="bold">2,847</text>
  <rect x="410" y="50" width="180" height="80" rx="10" fill="#0d1b2e"/>
  <text x="500" y="75" font-family="monospace" font-size="10" fill="#ffffff60" text-anchor="middle">LOW STOCK</text>
  <text x="500" y="110" font-family="monospace" font-size="26" fill="#f59e0b" text-anchor="middle" font-weight="bold">14</text>
  <rect x="610" y="50" width="160" height="80" rx="10" fill="#0d1b2e"/>
  <text x="690" y="75" font-family="monospace" font-size="10" fill="#ffffff60" text-anchor="middle">REVENUE</text>
  <text x="690" y="110" font-family="monospace" font-size="22" fill="#22c55e" text-anchor="middle" font-weight="bold">$48.2K</text>
  <!-- Bar chart -->
  <rect x="210" y="155" width="560" height="180" rx="10" fill="#0d1b2e"/>
  <text x="230" y="178" font-family="monospace" font-size="11" fill="#ffffff80">Sales This Week</text>
  <rect x="240" y="240" width="40" height="70" rx="4" fill="#7c3aed60"/>
  <rect x="300" y="210" width="40" height="100" rx="4" fill="#7c3aed80"/>
  <rect x="360" y="230" width="40" height="80" rx="4" fill="#7c3aed60"/>
  <rect x="420" y="190" width="40" height="120" rx="4" fill="#a855f7"/>
  <rect x="480" y="220" width="40" height="90" rx="4" fill="#7c3aed80"/>
  <rect x="540" y="200" width="40" height="110" rx="4" fill="#7c3aed80"/>
  <rect x="600" y="185" width="40" height="125" rx="4" fill="#a855f7"/>
  <!-- AI badge -->
  <rect x="210" y="355" width="560" height="50" rx="10" fill="#7c3aed15" stroke="#7c3aed30"/>
  <text x="490" y="386" font-family="monospace" font-size="12" fill="#a855f7" text-anchor="middle">AI Demand Forecast: Restock SKU-4821 within 3 days</text>
</svg>
